-=Screen=-
 
http://bayimg.com/JaOkDAaDo


Seeding Time 24/7

Don't Forget To Say Thanks If You Like My Post



-=Media Info=-


Format : AVI
Format/Info : Audio Video Interleave
File size : 322 MiB
Duration : 33mn 31s
Overall bit rate : 1 341 Kbps

Video
ID : 0
Format : MPEG-4 Visual
Format settings, BVOP : 1
Format settings, QPel : No
Format settings, GMC : No warppoints
Format settings, Matrix : Default (H.263)
Muxing mode : Packed bitstream
Codec ID : DX50
Codec ID/Hint : DivX 5
Duration : 33mn 31s
Bit rate : 1 209 Kbps
Width : 712 pixels
Height : 400 pixels
Display aspect ratio : 16:9
Frame rate : 25.000 fps
Color space : YUV
Chroma subsampling : 40
Bit depth : 8 bits
Scan type : Progressive
Compression mode : Lossy
Bits/(Pixel*Frame) : 0.170
Stream size : 290 MiB (90%)
Writing library : DivX 6.8.2 (UTC 2008-05-17)

Audio
ID : 1
Format : MPEG Audio
Format version : Version 1
Format profile : Layer 3
Codec ID : 55
Codec ID/Hint : MP3
Duration : 33mn 31s
Bit rate mode : Constant
Bit rate : 128 Kbps
Channel(s) : 2 channels
Sampling rate : 32.0 KHz
Compression mode : Lossy
Stream size : 30.7 MiB (10%)
Alignment : Split accross interleaves
Interleave, duration : 500 ms (12.50 video frames)
Interleave, preload duration : 750 ms